<?xml version="1.0" standalone="no"?>
<!DOCTYPE svg PUBLIC "-//W3C//DTD SVG 20010904//EN"
 "http://www.w3.org/TR/2001/REC-SVG-20010904/DTD/svg10.dtd">
<svg version="1.0" xmlns="http://www.w3.org/2000/svg"
 width="700.000000pt" height="700.000000pt" viewBox="0 0 700.000000 700.000000"
 preserveAspectRatio="xMidYMid meet">
<metadata>
Created by potrace 1.11, written by Peter Selinger 2001-2013
</metadata>
<g transform="translate(0.000000,700.000000) scale(0.100000,-0.100000)"
fill="#000000" stroke="none">
<path d="M2950 6579 c-979 -50 -1861 -597 -2360 -1463 -184 -320 -303 -678
-356 -1071 -21 -159 -24 -519 -6 -680 114 -991 719 -1853 1607 -2290 192 -95
304 -138 502 -194 999 -285 2090 3 2832 748 665 668 963 1608 806 2537 -185
1091 -968 1978 -2029 2298 -304 92 -657 133 -996 115z m565 -207 c1008 -156
1845 -851 2175 -1808 52 -152 94 -327 121 -504 29 -189 31 -531 5 -720 -57
-421 -202 -806 -431 -1150 -117 -175 -199 -275 -350 -425 -421 -419 -951 -683
-1547 -770 -232 -35 -576 -30 -818 11 -860 144 -1588 679 -1982 1454 -134 264
-222 545 -270 865 -18 122 -18 598 0 720 75 495 264 945 554 1313 445 564
1111 943 1798 1021 52 6 111 13 130 15 96 11 491 -3 615 -22z"/>
<path d="M4161 4458 c-38 -9 -62 -27 -165 -127 -772 -749 -1108 -1072 -1116
-1069 -4 2 -146 149 -314 327 -168 178 -320 334 -338 345 -23 15 -49 21 -89
21 -68 0 -123 -33 -157 -94 -29 -50 -30 -134 -3 -176 40 -63 771 -830 814
-853 52 -29 139 -27 180 4 14 10 162 152 329 314 167 162 471 457 677 655 216
209 381 376 392 397 41 81 9 193 -67 234 -50 28 -88 33 -143 22z"/>
</g>
</svg>
