<svg width="31" height="29" viewBox="0 0 31 29" fill="none" xmlns="http://www.w3.org/2000/svg">
<circle cx="16.8937" cy="14.9813" r="13.7063" fill="#28EE5F"/>
<circle cx="13.7063" cy="13.7063" r="12.7063" stroke="black" stroke-width="2"/>
<path fill-rule="evenodd" clip-rule="evenodd" d="M14.5644 12.3875C14.5644 12.9398 15.0121 13.3875 15.5644 13.3875H17.4332C17.9613 13.3875 18.3894 13.8156 18.3894 14.3438C18.3894 14.8719 17.9613 15.3 17.4332 15.3H15.5644C15.0121 15.3 14.5644 15.7477 14.5644 16.3V18.1687C14.5644 18.6969 14.1363 19.125 13.6082 19.125C13.08 19.125 12.6519 18.6969 12.6519 18.1688V16.3C12.6519 15.7477 12.2042 15.3 11.6519 15.3H9.78315C9.25503 15.3 8.8269 14.8719 8.8269 14.3438C8.8269 13.8156 9.25503 13.3875 9.78315 13.3875H11.6519C12.2042 13.3875 12.6519 12.9398 12.6519 12.3875V10.5188C12.6519 9.99063 13.08 9.5625 13.6082 9.5625C14.1363 9.5625 14.5644 9.99063 14.5644 10.5187V12.3875Z" fill="black"/>
</svg>
