<svg width="21" height="15" viewBox="0 0 21 15" fill="none" xmlns="http://www.w3.org/2000/svg">
<path fill-rule="evenodd" clip-rule="evenodd" d="M10.4878 0C13.0449 0 15.49 1.34121 17.7687 3.54483C18.5461 4.29661 19.2494 5.09921 19.8686 5.90215C20.2422 6.38666 20.5074 6.76781 20.6526 6.99488L20.9757 7.5L20.6526 8.00512C20.5074 8.23219 20.2422 8.61334 19.8686 9.09785C19.2494 9.90079 18.5461 10.7034 17.7687 11.4552C15.49 13.6588 13.0449 15 10.4878 15C7.93077 15 5.48565 13.6588 3.20695 11.4552C2.42956 10.7034 1.72626 9.90079 1.10713 9.09785C0.733539 8.61334 0.46829 8.23219 0.323062 8.00512L0 7.5L0.323062 6.99488C0.46829 6.76781 0.733539 6.38666 1.10713 5.90215C1.72626 5.09921 2.42956 4.29661 3.20695 3.54483C5.48565 1.34121 7.93077 0 10.4878 0ZM18.3837 7.04707C17.8168 6.31192 17.1723 5.57644 16.4653 4.89267C14.5027 2.99473 12.4613 1.875 10.4878 1.875C8.5143 1.875 6.47295 2.99473 4.51034 4.89267C3.80328 5.57644 3.15879 6.31192 2.59194 7.04707C2.46952 7.20585 2.35639 7.35733 2.25296 7.5C2.35639 7.64267 2.46952 7.79415 2.59194 7.95293C3.15879 8.68808 3.80328 9.42356 4.51034 10.1073C6.47295 12.0053 8.5143 13.125 10.4878 13.125C12.4613 13.125 14.5027 12.0053 16.4653 10.1073C17.1723 9.42356 17.8168 8.68808 18.3837 7.95293C18.5061 7.79415 18.6192 7.64267 18.7227 7.5C18.6192 7.35733 18.5061 7.20585 18.3837 7.04707ZM6.73782 7.5C6.73782 9.57107 8.41676 11.25 10.4878 11.25C12.5589 11.25 14.2378 9.57107 14.2378 7.5C14.2378 5.42893 12.5589 3.75 10.4878 3.75C8.41676 3.75 6.73782 5.42893 6.73782 7.5ZM12.3628 7.5C12.3628 8.53553 11.5234 9.375 10.4878 9.375C9.45229 9.375 8.61282 8.53553 8.61282 7.5C8.61282 6.46447 9.45229 5.625 10.4878 5.625C11.5234 5.625 12.3628 6.46447 12.3628 7.5Z" fill="currentColor"/>
</svg>
