<svg width="71" height="66" viewBox="0 0 71 66" fill="none" xmlns="http://www.w3.org/2000/svg">
<circle cx="38.8667" cy="34.4667" r="31.5333" fill="#28EECA"/>
<path fill-rule="evenodd" clip-rule="evenodd" d="M31.5333 61.0667C47.8441 61.0667 61.0667 47.8441 61.0667 31.5333C61.0667 15.2225 47.8441 2 31.5333 2C15.2225 2 2 15.2225 2 31.5333C2 47.8441 15.2225 61.0667 31.5333 61.0667ZM31.5333 63.0667C48.9487 63.0667 63.0667 48.9487 63.0667 31.5333C63.0667 14.118 48.9487 0 31.5333 0C14.118 0 0 14.118 0 31.5333C0 48.9487 14.118 63.0667 31.5333 63.0667Z" fill="black"/>
<path d="M19.935 16H34.5203C35.3618 16 40.7846 21.6095 41.7195 22.5143C41.9065 22.6952 42 22.9667 42 23.1476V45.4952C42 46.0381 41.5325 46.4 41.065 46.4H19.935C19.374 46.4 19 46.0381 19 45.4952V16.9048C19 16.3619 19.374 16 19.935 16ZM35.4553 19.0762V22.8762H39.3821L35.4553 19.0762ZM40.1301 24.5952H33.5854V17.8095H20.8699V44.5905H40.1301V24.5952Z" fill="black"/>
<path d="M23.9269 32H29.6301V33.8095H23.9269V32Z" fill="black"/>
<path d="M31 32H36.7033V33.8095H31V32Z" fill="black"/>
<path d="M23.9269 37H29.6301V38.8095H23.9269V37Z" fill="black"/>
<path d="M31 37H36.7033V38.8095H31V37Z" fill="black"/>
</svg>
