<svg width="71" height="66" viewBox="0 0 71 66" fill="none" xmlns="http://www.w3.org/2000/svg">
<circle cx="38.8666" cy="34.4667" r="31.5333" fill="#28EE5F"/>
<path fill-rule="evenodd" clip-rule="evenodd" d="M31.5333 61.0667C47.8441 61.0667 61.0667 47.8441 61.0667 31.5333C61.0667 15.2225 47.8441 2 31.5333 2C15.2225 2 2 15.2225 2 31.5333C2 47.8441 15.2225 61.0667 31.5333 61.0667ZM31.5333 63.0667C48.9487 63.0667 63.0667 48.9487 63.0667 31.5333C63.0667 14.118 48.9487 0 31.5333 0C14.118 0 0 14.118 0 31.5333C0 48.9487 14.118 63.0667 31.5333 63.0667Z" fill="black"/>
<path d="M32.3467 19.057C29.659 21.7984 28.9891 25.8161 30.3226 29.1995L18.4874 41.2714L17.9482 46.4915L24.7099 45.3104L24.9928 42.1369L28.1041 41.8484L28.3869 38.6749L31.4982 38.3865L35.4138 34.3925C38.7309 35.7527 42.6698 35.0694 45.3574 32.328C48.9503 28.6633 48.9503 22.7217 45.3575 19.057C41.7646 15.3923 35.9395 15.3923 32.3467 19.057ZM39.1349 21.942C40.0722 20.986 41.5918 20.986 42.529 21.942C43.4663 22.898 43.4663 24.448 42.529 25.404C41.5918 26.36 40.0722 26.36 39.1349 25.404C38.1976 24.448 38.1976 22.898 39.1349 21.942Z" fill="black"/>
</svg>
