<svg xmlns="http://www.w3.org/2000/svg" viewBox="0 0 177.8 20">
  <path d="M10.5.1c.7-.1 1.2.1 1.6.4s.6.8.6 1.5-.2 1.2-.5 1.5c-.3.3-.9.6-1.8.7l-1.2.1c-1.5.2-2.6.7-3.3 1.5-.7.9-1 2-1 3.3v8.1c0 .7-.2 1.3-.7 1.7-.5.4-1 .6-1.7.6s-1.3-.2-1.7-.6c-.4-.4-.7-1-.7-1.7V2.3C0 1.6.2 1 .7.7c.5-.4 1-.6 1.7-.6.6 0 1.2.2 1.6.6.4.3.6.8.6 1.5v1.5c.5-1.1 1.2-2 2.2-2.6 1-.6 2.1-1 3.2-1h.5zm18.8 14c.4 0 .8.2 1 .5.3.3.4.8.4 1.3 0 .8-.5 1.5-1.4 2-.9.5-1.9.9-3 1.2-1.1.3-2.2.4-3.2.4-3 0-5.4-.9-7.2-2.6s-2.7-4.1-2.7-7.2c0-1.9.4-3.6 1.2-5.1.8-1.5 1.9-2.6 3.2-3.5 1.4-.8 3-1.2 4.8-1.2 1.7 0 3.2.4 4.4 1.1 1.3.7 2.2 1.8 2.9 3.2s1 3 1 4.8c0 1.1-.5 1.7-1.5 1.7H18.1c.2 1.8.7 3.1 1.5 3.9.8.8 2.1 1.2 3.7 1.2.8 0 1.5-.1 2.2-.3.7-.2 1.5-.5 2.2-.8.7-.4 1.3-.6 1.6-.6zM22.6 3.4c-1.3 0-2.4.4-3.2 1.2-.8.8-1.2 2-1.4 3.5h8.7c-.1-1.6-.4-2.7-1.2-3.5-.6-.8-1.6-1.2-2.9-1.2zm20.7 16.2c-1.9 0-3.5-.4-5-1.2-1.4-.8-2.5-1.9-3.3-3.4-.8-1.5-1.2-3.2-1.2-5.1 0-1.9.4-3.7 1.2-5.2.8-1.5 2-2.7 3.4-3.5C39.9.4 41.6 0 43.5 0c1 0 2 .1 3 .4 1 .3 1.9.7 2.7 1.2.8.5 1.2 1.2 1.2 2 0 .6-.1 1-.4 1.4-.3.3-.6.5-1 .5-.3 0-.6-.1-.9-.2-.3-.1-.6-.3-.9-.5-.5-.3-1.1-.6-1.6-.8-.5-.2-1.1-.3-1.8-.3-1.6 0-2.8.5-3.7 1.6-.8 1-1.3 2.5-1.3 4.5 0 1.9.4 3.4 1.3 4.5.9 1 2.1 1.5 3.7 1.5.6 0 1.2-.1 1.7-.3.5-.2 1.1-.5 1.7-.8.4-.2.7-.4 1-.5.3-.1.6-.2.8-.2.4 0 .8.2 1 .5.3.4.4.8.4 1.3 0 .4-.1.8-.3 1.2-.2.3-.5.6-.9.8-.8.5-1.7.9-2.8 1.2-1 .4-2 .6-3.1.6zM84 1.5c.2-.5.5-.8.8-1 .4-.2.7-.3 1.2-.3.6 0 1.1.2 1.6.6.5.4.7.9.7 1.5 0 .3-.1.6-.2.9L80.9 18c-.2.5-.6.9-1 1.1-.4.3-.9.4-1.4.4-.5 0-1-.1-1.4-.4-.4-.3-.8-.7-1-1.1L68.9 3.1c-.1-.3-.2-.6-.2-.9 0-.6.2-1.1.7-1.5.5-.4 1.1-.6 1.7-.6.9 0 1.6.4 2 1.3l5.4 11.9c.1 0 5.5-11.8 5.5-11.8zm21.7 12.6c.4 0 .8.2 1 .5.3.3.4.8.4 1.3 0 .8-.5 1.5-1.4 2-.9.5-1.9.9-3 1.2-1.1.3-2.2.4-3.2.4-3 0-5.4-.9-7.2-2.6-1.8-1.7-2.7-4.1-2.7-7.2 0-1.9.4-3.6 1.2-5.1.8-1.5 1.9-2.6 3.2-3.5C95.6.4 97.2 0 99 0c1.7 0 3.2.4 4.4 1.1 1.3.7 2.2 1.8 2.9 3.2s1 3 1 4.8c0 1.1-.5 1.7-1.5 1.7H94.5c.2 1.8.7 3.1 1.5 3.9.8.8 2.1 1.2 3.7 1.2.8 0 1.5-.1 2.2-.3.7-.2 1.5-.5 2.2-.8.7-.5 1.3-.7 1.6-.7zM99.1 3.4c-1.3 0-2.4.4-3.2 1.2-.8.8-1.2 2-1.4 3.5h8.7c-.1-1.6-.4-2.7-1.2-3.5-.6-.8-1.6-1.2-2.9-1.2zM121.8.1c.7-.1 1.2.1 1.6.4.4.3.6.8.6 1.5s-.2 1.2-.5 1.5c-.3.3-.9.6-1.8.7l-1.2.1c-1.5.2-2.6.7-3.4 1.5-.7.9-1 2-1 3.3v8.1c0 .7-.2 1.3-.7 1.7-.5.4-1 .6-1.7.6s-1.3-.2-1.7-.6c-.4-.4-.7-1-.7-1.7V2.3c0-.7.2-1.3.7-1.7.5-.4 1-.6 1.7-.6s1.2.2 1.6.6c.4.4.6.9.6 1.6v1.5c.5-1.1 1.2-2 2.2-2.6 1-.6 2.1-1 3.2-1h.5z" fill="#000"/>
  <path d="M57.9 19.6c-2 0-3.7-.4-5.2-1.2-1.5-.8-2.6-1.9-3.4-3.4-.8-1.5-1.2-3.2-1.2-5.2s.4-3.7 1.2-5.2c.8-1.5 1.9-2.6 3.4-3.4C54.3.4 56 0 57.9 0c2 0 3.7.4 5.1 1.2 1.5.8 2.7 2 3.4 3.4.8 1.5 1.2 3.2 1.2 5.2s-.4 3.7-1.2 5.2c-.8 1.5-2 2.7-3.4 3.4-1.4.8-3.1 1.2-5.1 1.2zm0-3.8c1.6 0 2.8-.5 3.6-1.5.8-1 1.3-2.5 1.3-4.5s-.4-3.5-1.3-4.5c-.8-1.1-2-1.6-3.6-1.6s-2.8.5-3.7 1.6c-.8 1-1.3 2.5-1.3 4.5s.4 3.5 1.3 4.5 2.1 1.5 3.7 1.5z" fill="#4db6ac"/>
  <path d="M140.4 18.3c-.8-.4-1.4-1.1-1.8-1.9-.4-.8-.6-1.7-.6-2.8 0-1.1.2-2 .7-2.9.4-.8 1.1-1.5 1.9-1.9.8-.5 1.7-.7 2.8-.7.6 0 1.1.1 1.7.2.6.2 1.1.4 1.5.6.5.3.7.7.7 1.1 0 .3-.1.6-.2.8-.1.2-.3.3-.6.3-.2 0-.3 0-.5-.1s-.3-.2-.5-.3c-.3-.2-.6-.3-.9-.4-.3-.1-.6-.2-1-.2-.9 0-1.6.3-2 .9-.5.6-.7 1.4-.7 2.5s.2 1.9.7 2.5c.5.6 1.1.9 2 .9.4 0 .7-.1.9-.2.3-.1.6-.3.9-.4l.6-.3c.2-.1.3-.1.5-.1s.4.1.6.3c.2.2.2.4.2.7 0 .2-.1.4-.2.6-.1.2-.3.3-.5.5-.4.3-.9.5-1.5.7-.6.2-1.2.2-1.8.2-1.2.1-2.1-.2-2.9-.6zM156.6 9.2c.7.7 1 1.8 1 3.3v5.2c0 .4-.1.7-.3.9-.2.2-.5.3-.9.3s-.7-.1-.9-.3c-.2-.2-.4-.5-.4-.9v-.5c-.2.6-.6 1-1.1 1.3-.5.3-1.1.5-1.8.5s-1.3-.1-1.9-.4c-.6-.3-1-.7-1.3-1.2-.3-.5-.5-1-.5-1.7 0-.8.2-1.4.6-1.8.4-.4 1-.8 1.9-1 .9-.2 2.1-.3 3.6-.3h.5v-.5c0-.7-.1-1.2-.4-1.5-.3-.3-.8-.5-1.4-.5-.4 0-.8.1-1.3.2-.4.1-.9.3-1.5.5-.4.2-.6.3-.8.3-.3 0-.5-.1-.6-.3s-.2-.4-.2-.7c0-.2.1-.4.2-.6.1-.2.3-.3.6-.5.5-.3 1.1-.5 1.8-.6.7-.2 1.4-.2 2-.2 1.3 0 2.4.3 3.1 1zm-2.2 7.1c.4-.5.7-1.1.7-1.8v-.4h-.4c-.9 0-1.7 0-2.2.1-.5.1-.9.2-1.1.4-.2.2-.3.5-.3.9 0 .5.2.8.5 1.1.3.3.7.4 1.2.4.6 0 1.2-.2 1.6-.7zM167 8.4c.2.2.3.5.3.8 0 .4-.1.7-.3.8-.2.2-.5.3-1 .4l-.6.1c-.8.1-1.4.4-1.8.8-.4.5-.6 1.1-.6 1.8v4.5c0 .4-.1.7-.4.9s-.6.3-1 .3-.7-.1-.9-.3c-.2-.2-.4-.5-.4-.9V9.4c0-.4.1-.7.4-.9.2-.2.6-.3.9-.3s.7.1.9.3c.2.2.3.5.3.9v.8c.3-.6.7-1.1 1.2-1.4s1.1-.5 1.8-.6h.3c.4 0 .7 0 .9.2zM177 16.2c.1.2.2.4.2.7 0 .4-.3.8-.8 1.1-.5.3-1 .5-1.6.6s-1.2.2-1.7.2c-1.7 0-3-.5-4-1.4-1-1-1.5-2.3-1.5-3.9 0-1.1.2-2 .6-2.8.4-.8 1-1.5 1.8-1.9.8-.5 1.6-.7 2.6-.7.9 0 1.7.2 2.4.6.7.4 1.2 1 1.6 1.7.4.7.6 1.6.6 2.7 0 .6-.3.9-.8.9h-6.3c.1 1 .4 1.7.8 2.2.5.5 1.1.7 2 .7.5 0 .9-.1 1.2-.2.3-.1.7-.3 1.2-.5.4-.2.7-.3.9-.3.5 0 .7.1.8.3zm-6-5.5c-.4.5-.7 1.1-.8 2h4.8c0-.9-.2-1.5-.6-2-.4-.4-.9-.7-1.7-.7-.7 0-1.2.2-1.7.7z" fill="#000"/>
</svg>