<svg width="124" height="20" fill="none" xmlns="http://www.w3.org/2000/svg">
  <path d="M10.531.077c.67-.051 1.196.09 1.582.423.386.333.579.833.579 1.5 0 .693-.167 1.205-.502 1.539-.334.333-.938.551-1.813.654l-1.157.115c-1.517.154-2.636.667-3.356 1.539-.695.872-1.042 1.962-1.042 3.27v8.077c0 .744-.231 1.32-.694 1.731-.463.385-1.042.577-1.736.577-.695 0-1.273-.192-1.736-.577-.437-.41-.656-.987-.656-1.73V2.307C0 1.59.219 1.038.656.654 1.119.269 1.685.077 2.353.077c.669 0 1.209.192 1.62.577.412.359.618.885.618 1.577V3.77c.488-1.129 1.208-2 2.16-2.616A6.813 6.813 0 0 1 9.991.115l.54-.038zM29.32 14.117c.438 0 .785.166 1.042.5.283.333.424.782.424 1.346 0 .795-.476 1.462-1.427 2-.875.488-1.865.885-2.97 1.193-1.106.282-2.16.423-3.164.423-3.035 0-5.44-.872-7.214-2.616-1.774-1.744-2.662-4.128-2.662-7.154 0-1.924.386-3.629 1.158-5.116.771-1.488 1.851-2.641 3.24-3.462C19.162.41 20.757 0 22.531 0c1.697 0 3.176.372 4.436 1.115 1.26.744 2.238 1.796 2.932 3.155.694 1.359 1.042 2.962 1.042 4.808 0 1.103-.49 1.654-1.466 1.654h-11.38c.154 1.77.655 3.077 1.504 3.923.849.821 2.083 1.231 3.703 1.231.823 0 1.543-.102 2.16-.307a20.541 20.541 0 0 0 2.16-.847c.773-.41 1.338-.615 1.698-.615zM22.646 3.385c-1.311 0-2.366.41-3.163 1.23-.771.821-1.234 2.001-1.389 3.54h8.719c-.052-1.565-.437-2.744-1.157-3.54-.72-.82-1.724-1.23-3.01-1.23zM43.256 19.579c-1.877 0-3.536-.398-4.976-1.192-1.415-.795-2.508-1.924-3.28-3.385-.77-1.462-1.157-3.167-1.157-5.116 0-1.95.4-3.667 1.196-5.155.823-1.513 1.968-2.68 3.434-3.5C39.939.41 41.623 0 43.526 0c1.003 0 2.006.141 3.01.423 1.028.282 1.928.667 2.7 1.154.823.539 1.234 1.218 1.234 2.039 0 .564-.141 1.025-.424 1.385-.257.333-.605.5-1.042.5a2.31 2.31 0 0 1-.887-.193 7.773 7.773 0 0 1-.926-.461 9.174 9.174 0 0 0-1.62-.77c-.514-.205-1.106-.307-1.775-.307-1.594 0-2.829.525-3.703 1.577-.849 1.025-1.273 2.513-1.273 4.462 0 1.923.424 3.41 1.273 4.462.874 1.025 2.109 1.538 3.703 1.538.643 0 1.21-.09 1.698-.269.514-.205 1.08-.474 1.697-.808.386-.23.72-.397 1.003-.5.283-.128.566-.192.849-.192.411 0 .758.18 1.041.538.283.36.425.808.425 1.347 0 .436-.103.82-.309 1.154-.18.307-.489.59-.926.846-.797.513-1.723.923-2.777 1.23a12.484 12.484 0 0 1-3.24.424zM83.965 1.462c.205-.462.475-.808.81-1.039.36-.23.746-.346 1.157-.346.592 0 1.119.205 1.582.615.488.385.733.872.733 1.462 0 .308-.078.616-.232.923L80.88 17.963c-.232.488-.566.86-1.004 1.116a2.572 2.572 0 0 1-1.388.385c-.489 0-.965-.129-1.428-.385a2.498 2.498 0 0 1-1.003-1.116L68.881 3.077a1.948 1.948 0 0 1-.193-.884c0-.59.244-1.09.733-1.5a2.712 2.712 0 0 1 1.736-.616c.926 0 1.607.449 2.045 1.346l5.4 11.886 5.363-11.847zM105.743 14.117c.438 0 .785.166 1.042.5.283.333.424.782.424 1.346 0 .795-.475 1.462-1.427 2-.874.488-1.865.885-2.97 1.193-1.106.282-2.161.423-3.164.423-3.034 0-5.44-.872-7.214-2.616-1.774-1.744-2.661-4.128-2.661-7.154 0-1.924.385-3.629 1.157-5.116.771-1.488 1.852-2.641 3.24-3.462C95.585.41 97.18 0 98.954 0c1.697 0 3.176.372 4.436 1.115 1.26.744 2.238 1.796 2.932 3.155.694 1.359 1.042 2.962 1.042 4.808 0 1.103-.489 1.654-1.466 1.654h-11.38c.154 1.77.655 3.077 1.504 3.923.849.821 2.083 1.231 3.703 1.231.823 0 1.544-.102 2.161-.307a20.521 20.521 0 0 0 2.16-.847c.772-.41 1.337-.615 1.697-.615zM99.07 3.385c-1.312 0-2.366.41-3.164 1.23-.771.821-1.234 2.001-1.389 3.54h8.719c-.051-1.565-.437-2.744-1.157-3.54-.72-.82-1.723-1.23-3.01-1.23zM121.84.077c.668-.051 1.196.09 1.581.423.386.333.579.833.579 1.5 0 .693-.167 1.205-.501 1.539-.335.333-.939.551-1.814.654l-1.157.115c-1.517.154-2.636.667-3.356 1.539-.695.872-1.042 1.962-1.042 3.27v8.077c0 .744-.231 1.32-.694 1.731-.463.385-1.042.577-1.736.577s-1.273-.192-1.736-.577c-.437-.41-.656-.987-.656-1.73V2.307c0-.718.219-1.27.656-1.654.463-.385 1.029-.577 1.697-.577.669 0 1.209.192 1.621.577.411.359.617.885.617 1.577V3.77c.488-1.129 1.209-2 2.16-2.616A6.814 6.814 0 0 1 121.3.115l.54-.038z" fill="#000"/>
  <path d="M57.94 19.579c-1.96 0-3.687-.398-5.178-1.192-1.465-.795-2.603-1.937-3.414-3.424-.81-1.487-1.216-3.218-1.216-5.193 0-1.974.405-3.692 1.216-5.154.811-1.487 1.949-2.629 3.414-3.424C54.252.397 55.979 0 57.94 0c1.962 0 3.675.397 5.14 1.192a8.063 8.063 0 0 1 3.413 3.424c.811 1.462 1.217 3.18 1.217 5.154 0 1.975-.406 3.706-1.216 5.193a8.063 8.063 0 0 1-3.414 3.424c-1.465.794-3.178 1.192-5.14 1.192zm-.038-3.731c1.595 0 2.812-.513 3.649-1.539.837-1.026 1.255-2.539 1.255-4.539 0-1.974-.418-3.474-1.255-4.5-.837-1.052-2.04-1.577-3.61-1.577-1.57 0-2.786.525-3.65 1.577-.836 1.026-1.255 2.526-1.255 4.5 0 2 .419 3.513 1.256 4.54.837 1.025 2.04 1.538 3.61 1.538z" fill="#EA28EE"/>
</svg>