<svg xmlns="http://www.w3.org/2000/svg" viewBox="0 0 182.7 20">
  <path d="M10.5.1c.7-.1 1.2.1 1.6.4s.6.8.6 1.5-.2 1.2-.5 1.5c-.3.3-.9.6-1.8.7l-1.2.1c-1.5.2-2.6.7-3.3 1.5-.7.9-1 2-1 3.3v8.1c0 .7-.2 1.3-.7 1.7-.5.4-1 .6-1.7.6s-1.3-.2-1.7-.6c-.4-.4-.7-1-.7-1.7V2.3C0 1.6.2 1 .7.7c.5-.4 1-.6 1.7-.6.6 0 1.2.2 1.6.6.4.3.6.8.6 1.5v1.5c.5-1.1 1.2-2 2.2-2.6 1-.6 2.1-1 3.2-1h.5zm18.8 14c.4 0 .8.2 1 .5.3.3.4.8.4 1.3 0 .8-.5 1.5-1.4 2-.9.5-1.9.9-3 1.2-1.1.3-2.2.4-3.2.4-3 0-5.4-.9-7.2-2.6s-2.7-4.1-2.7-7.2c0-1.9.4-3.6 1.2-5.1.8-1.5 1.9-2.6 3.2-3.5 1.4-.8 3-1.2 4.8-1.2 1.7 0 3.2.4 4.4 1.1 1.3.7 2.2 1.8 2.9 3.2s1 3 1 4.8c0 1.1-.5 1.7-1.5 1.7H18.1c.2 1.8.7 3.1 1.5 3.9.8.8 2.1 1.2 3.7 1.2.8 0 1.5-.1 2.2-.3.7-.2 1.5-.5 2.2-.8.7-.4 1.3-.6 1.6-.6zM22.6 3.4c-1.3 0-2.4.4-3.2 1.2-.8.8-1.2 2-1.4 3.5h8.7c-.1-1.6-.4-2.7-1.2-3.5-.6-.8-1.6-1.2-2.9-1.2zm20.7 16.2c-1.9 0-3.5-.4-5-1.2-1.4-.8-2.5-1.9-3.3-3.4-.8-1.5-1.2-3.2-1.2-5.1 0-1.9.4-3.7 1.2-5.2.8-1.5 2-2.7 3.4-3.5C39.9.4 41.6 0 43.5 0c1 0 2 .1 3 .4 1 .3 1.9.7 2.7 1.2.8.5 1.2 1.2 1.2 2 0 .6-.1 1-.4 1.4-.3.3-.6.5-1 .5-.3 0-.6-.1-.9-.2-.3-.1-.6-.3-.9-.5-.5-.3-1.1-.6-1.6-.8-.5-.2-1.1-.3-1.8-.3-1.6 0-2.8.5-3.7 1.6-.8 1-1.3 2.5-1.3 4.5 0 1.9.4 3.4 1.3 4.5.9 1 2.1 1.5 3.7 1.5.6 0 1.2-.1 1.7-.3.5-.2 1.1-.5 1.7-.8.4-.2.7-.4 1-.5.3-.1.6-.2.8-.2.4 0 .8.2 1 .5.3.4.4.8.4 1.3 0 .4-.1.8-.3 1.2-.2.3-.5.6-.9.8-.8.5-1.7.9-2.8 1.2-1 .4-2 .6-3.1.6zM84 1.5c.2-.5.5-.8.8-1 .4-.2.7-.3 1.2-.3.6 0 1.1.2 1.6.6.5.4.7.9.7 1.5 0 .3-.1.6-.2.9L80.9 18c-.2.5-.6.9-1 1.1-.4.3-.9.4-1.4.4-.5 0-1-.1-1.4-.4-.4-.3-.8-.7-1-1.1L68.9 3.1c-.1-.3-.2-.6-.2-.9 0-.6.2-1.1.7-1.5.5-.4 1.1-.6 1.7-.6.9 0 1.6.4 2 1.3l5.4 11.9c.1 0 5.5-11.8 5.5-11.8zm21.7 12.6c.4 0 .8.2 1 .5.3.3.4.8.4 1.3 0 .8-.5 1.5-1.4 2-.9.5-1.9.9-3 1.2-1.1.3-2.2.4-3.2.4-3 0-5.4-.9-7.2-2.6-1.8-1.7-2.7-4.1-2.7-7.2 0-1.9.4-3.6 1.2-5.1.8-1.5 1.9-2.6 3.2-3.5C95.6.4 97.2 0 99 0c1.7 0 3.2.4 4.4 1.1 1.3.7 2.2 1.8 2.9 3.2s1 3 1 4.8c0 1.1-.5 1.7-1.5 1.7H94.5c.2 1.8.7 3.1 1.5 3.9.8.8 2.1 1.2 3.7 1.2.8 0 1.5-.1 2.2-.3.7-.2 1.5-.5 2.2-.8.7-.5 1.3-.7 1.6-.7zM99.1 3.4c-1.3 0-2.4.4-3.2 1.2-.8.8-1.2 2-1.4 3.5h8.7c-.1-1.6-.4-2.7-1.2-3.5-.6-.8-1.6-1.2-2.9-1.2zM121.8.1c.7-.1 1.2.1 1.6.4.4.3.6.8.6 1.5s-.2 1.2-.5 1.5c-.3.3-.9.6-1.8.7l-1.2.1c-1.5.2-2.6.7-3.4 1.5-.7.9-1 2-1 3.3v8.1c0 .7-.2 1.3-.7 1.7-.5.4-1 .6-1.7.6s-1.3-.2-1.7-.6c-.4-.4-.7-1-.7-1.7V2.3c0-.7.2-1.3.7-1.7.5-.4 1-.6 1.7-.6s1.2.2 1.6.6c.4.4.6.9.6 1.6v1.5c.5-1.1 1.2-2 2.2-2.6 1-.6 2.1-1 3.2-1h.5z" fill="#000"/>
  <path d="M57.9 19.6c-2 0-3.7-.4-5.2-1.2-1.5-.8-2.6-1.9-3.4-3.4-.8-1.5-1.2-3.2-1.2-5.2s.4-3.7 1.2-5.2c.8-1.5 1.9-2.6 3.4-3.4C54.3.4 56 0 57.9 0c2 0 3.7.4 5.1 1.2 1.5.8 2.7 2 3.4 3.4.8 1.5 1.2 3.2 1.2 5.2s-.4 3.7-1.2 5.2c-.8 1.5-2 2.7-3.4 3.4-1.4.8-3.1 1.2-5.1 1.2zm0-3.8c1.6 0 2.8-.5 3.6-1.5.8-1 1.3-2.5 1.3-4.5s-.4-3.5-1.3-4.5c-.8-1.1-2-1.6-3.6-1.6s-2.8.5-3.7 1.6c-.8 1-1.3 2.5-1.3 4.5s.4 3.5 1.3 4.5 2.1 1.5 3.7 1.5z" fill="#4db6ac"/>
  <path d="M133.7 18.3c-1-.6-1.8-1.4-2.4-2.5-.6-1.1-.8-2.3-.8-3.7 0-1.4.3-2.7.9-3.8.6-1.1 1.4-1.9 2.5-2.5s2.3-.9 3.7-.9c.7 0 1.5.1 2.2.3.7.2 1.4.5 2 .8.6.4.9.9.9 1.5 0 .4-.1.7-.3 1-.2.3-.5.4-.8.4-.2 0-.4 0-.6-.1-.2-.1-.5-.2-.7-.3l-1.2-.6c-.4-.1-.8-.2-1.3-.2-1.2 0-2.1.4-2.7 1.1-.6.8-.9 1.9-.9 3.3s.3 2.5.9 3.3c.6.8 1.5 1.1 2.7 1.1.5 0 .9-.1 1.3-.2s.8-.3 1.2-.6c.3-.2.5-.3.7-.4.2-.1.4-.1.6-.1.3 0 .6.1.8.4.2.3.3.6.3 1 0 .3-.1.6-.2.8-.1.2-.4.4-.7.6-.6.4-1.3.7-2 .9-.8.2-1.6.3-2.4.3-1.5 0-2.7-.3-3.7-.9zM155.1 6.3c.9.9 1.4 2.4 1.4 4.3v6.9c0 .5-.2.9-.4 1.2-.3.3-.7.4-1.2.4s-.9-.2-1.2-.5c-.3-.3-.5-.7-.5-1.2v-.6c-.3.7-.8 1.3-1.5 1.7-.7.4-1.5.6-2.4.6-.9 0-1.8-.2-2.5-.6-.8-.4-1.3-.9-1.8-1.5-.4-.7-.6-1.4-.6-2.2 0-1 .3-1.8.8-2.4.5-.6 1.4-1 2.5-1.3 1.2-.3 2.8-.4 4.8-.4h.7v-.6c0-.9-.2-1.6-.6-2-.4-.4-1-.6-1.9-.6-.5 0-1.1.1-1.7.2-.6.2-1.2.4-2 .7-.5.2-.8.4-1.1.4-.3 0-.6-.1-.8-.4-.2-.2-.3-.6-.3-1 0-.3.1-.6.2-.8.2-.2.4-.5.8-.7.7-.4 1.4-.6 2.4-.8.9-.2 1.8-.3 2.7-.3 1.9.1 3.3.5 4.2 1.5zm-2.8 9.4c.6-.6.9-1.4.9-2.4v-.6h-.5c-1.3 0-2.2.1-2.9.2-.7.1-1.2.3-1.5.6-.3.3-.5.7-.5 1.2 0 .6.2 1.1.6 1.5.4.4.9.6 1.6.6.9-.1 1.7-.5 2.3-1.1zM168.9 5.2c.3.2.4.6.4 1.1 0 .5-.1.9-.4 1.1-.2.2-.7.4-1.3.5l-.8.1c-1.1.1-1.9.5-2.4 1.1-.5.6-.8 1.4-.8 2.4v5.9c0 .5-.2 1-.5 1.3-.3.3-.8.4-1.3.4s-.9-.1-1.3-.4c-.3-.3-.5-.7-.5-1.3V6.5c0-.5.2-.9.5-1.2.3-.3.7-.4 1.2-.4s.9.1 1.2.4c.3.3.5.7.5 1.2v1.1c.4-.8.9-1.5 1.6-1.9.7-.5 1.5-.7 2.4-.8h.4c.5 0 .9.1 1.1.3zM182.3 15.6c.2.2.3.6.3 1 0 .6-.3 1.1-1 1.5-.6.4-1.4.6-2.2.9s-1.6.3-2.3.3c-2.2 0-4-.6-5.3-1.9-1.3-1.3-1.9-3-1.9-5.2 0-1.4.3-2.7.8-3.7.6-1.1 1.4-1.9 2.4-2.5 1-.6 2.2-.9 3.5-.9 1.2 0 2.3.3 3.2.8.9.5 1.6 1.3 2.1 2.3.5 1 .8 2.2.8 3.5 0 .8-.4 1.2-1.1 1.2h-8.3c.1 1.3.5 2.2 1.1 2.9.6.6 1.5.9 2.7.9.6 0 1.1-.1 1.6-.2.5-.2 1-.4 1.6-.6.6-.3 1-.5 1.2-.5.3-.2.6-.1.8.2zm-8-7.4c-.6.6-.9 1.5-1 2.6h6.4c0-1.1-.3-2-.8-2.6-.5-.6-1.3-.9-2.2-.9-1 0-1.8.3-2.4.9z" fill="#000"/>
</svg>