<svg viewBox="0 0 594 61" fill="none" xmlns="http://www.w3.org/2000/svg"><path d="M29.013 6.47c1.842-.14 3.294.248 4.357 1.166 1.063.919 1.594 2.296 1.594 4.133 0 1.907-.46 3.32-1.382 4.239-.92.918-2.586 1.518-4.995 1.801l-3.188.318c-4.18.424-7.262 1.837-9.245 4.239-1.913 2.401-2.87 5.404-2.87 9.007v22.253c0 2.048-.638 3.638-1.913 4.768-1.275 1.06-2.87 1.59-4.782 1.59-1.913 0-3.507-.53-4.782-1.59C.602 57.264 0 55.674 0 53.626v-41.01C0 10.64.602 9.12 1.807 8.06 3.082 7 4.64 6.47 6.483 6.47s3.33.53 4.463 1.59c1.134.99 1.7 2.437 1.7 4.345v4.238c1.347-3.108 3.33-5.51 5.952-7.205 2.692-1.696 5.668-2.65 8.927-2.861l1.488-.106zM80.822 44.89c1.204 0 2.16.459 2.87 1.377.778.919 1.168 2.155 1.168 3.71 0 2.19-1.31 4.026-3.932 5.51-2.409 1.342-5.136 2.437-8.183 3.284-3.047.777-5.951 1.166-8.715 1.166-8.36 0-14.984-2.402-19.873-7.206-4.888-4.803-7.332-11.373-7.332-19.71 0-5.298 1.062-9.996 3.188-14.093 2.125-4.097 5.1-7.276 8.927-9.537 3.896-2.26 8.289-3.39 13.178-3.39 4.676 0 8.75 1.024 12.221 3.072 3.472 2.049 6.164 4.945 8.077 8.69 1.913 3.744 2.87 8.159 2.87 13.245 0 3.038-1.347 4.557-4.04 4.557h-31.35c.425 4.874 1.807 8.477 4.145 10.808 2.338 2.26 5.739 3.391 10.202 3.391 2.267 0 4.251-.282 5.951-.848 1.772-.565 3.755-1.342 5.952-2.33 2.125-1.131 3.684-1.696 4.676-1.696zM62.436 15.325c-3.613 0-6.518 1.13-8.714 3.391-2.126 2.26-3.4 5.51-3.826 9.749h24.018c-.142-4.31-1.204-7.559-3.188-9.749-1.984-2.26-4.747-3.39-8.29-3.39zM119.164 59.937c-5.172 0-9.742-1.095-13.709-3.285-3.897-2.19-6.908-5.298-9.034-9.325-2.125-4.027-3.188-8.725-3.188-14.093 0-5.37 1.099-10.103 3.295-14.2 2.267-4.168 5.42-7.382 9.458-9.643 4.038-2.26 8.679-3.39 13.922-3.39 2.763 0 5.526.388 8.289 1.165 2.834.777 5.314 1.837 7.439 3.179 2.268 1.483 3.401 3.355 3.401 5.616 0 1.554-.39 2.826-1.169 3.815-.708.918-1.665 1.377-2.869 1.377-.78 0-1.594-.176-2.445-.53-.85-.353-1.7-.777-2.55-1.271-1.559-.919-3.047-1.625-4.464-2.12-1.417-.565-3.046-.847-4.888-.847-4.393 0-7.794 1.448-10.202 4.344-2.338 2.826-3.507 6.924-3.507 12.293 0 5.298 1.169 9.395 3.507 12.292 2.408 2.825 5.809 4.238 10.202 4.238 1.771 0 3.33-.247 4.676-.742 1.417-.565 2.976-1.306 4.676-2.225 1.063-.636 1.984-1.095 2.763-1.377.779-.354 1.559-.53 2.338-.53 1.134 0 2.09.494 2.869 1.483.78.99 1.169 2.226 1.169 3.71 0 1.2-.283 2.26-.85 3.178-.496.848-1.346 1.625-2.55 2.331-2.197 1.413-4.747 2.544-7.652 3.391a34.392 34.392 0 0 1-8.927 1.166zM231.309 10.402c.567-1.271 1.311-2.225 2.232-2.86.992-.637 2.054-.955 3.188-.955 1.629 0 3.082.566 4.357 1.696 1.346 1.06 2.019 2.402 2.019 4.027 0 .847-.212 1.695-.637 2.543l-19.661 41.009c-.638 1.342-1.559 2.366-2.763 3.073-1.134.706-2.409 1.06-3.826 1.06-1.346 0-2.657-.354-3.932-1.06-1.204-.707-2.125-1.731-2.763-3.073l-19.767-41.01c-.354-.706-.531-1.518-.531-2.437 0-1.624.673-3.002 2.019-4.132 1.417-1.13 3.011-1.696 4.782-1.696 2.551 0 4.428 1.237 5.633 3.71l14.878 32.743 14.772-32.638zM291.281 44.89c1.205 0 2.161.459 2.87 1.377.779.919 1.169 2.155 1.169 3.71 0 2.19-1.311 4.026-3.932 5.51-2.409 1.342-5.137 2.437-8.183 3.284-3.047.777-5.952 1.166-8.715 1.166-8.36 0-14.984-2.402-19.873-7.206-4.889-4.804-7.333-11.373-7.333-19.71 0-5.298 1.063-9.996 3.188-14.093 2.126-4.097 5.101-7.276 8.927-9.537 3.897-2.26 8.29-3.39 13.178-3.39 4.676 0 8.75 1.023 12.222 3.072 3.471 2.049 6.164 4.945 8.076 8.69 1.913 3.743 2.87 8.159 2.87 13.245 0 3.038-1.346 4.557-4.039 4.557h-31.35c.425 4.874 1.806 8.477 4.144 10.808 2.338 2.26 5.739 3.391 10.203 3.391 2.267 0 4.251-.282 5.951-.848 1.771-.565 3.755-1.342 5.951-2.33 2.126-1.131 3.684-1.696 4.676-1.696zm-18.385-29.565c-3.613 0-6.518 1.13-8.714 3.391-2.126 2.26-3.401 5.51-3.826 9.749h24.018c-.142-4.31-1.205-7.559-3.189-9.749-1.983-2.26-4.746-3.39-8.289-3.39zM335.649 6.464c1.842-.141 3.294.247 4.357 1.165 1.063.919 1.594 2.296 1.594 4.133 0 1.908-.461 3.32-1.382 4.239-.921.918-2.586 1.519-4.994 1.801l-3.189.318c-4.18.424-7.262 1.837-9.245 4.239-1.913 2.402-2.87 5.404-2.87 9.007v22.253c0 2.048-.637 3.638-1.913 4.768-1.275 1.06-2.869 1.59-4.782 1.59-1.913 0-3.507-.53-4.782-1.59-1.205-1.13-1.807-2.72-1.807-4.768v-41.01c0-1.977.602-3.496 1.807-4.556 1.275-1.06 2.834-1.59 4.676-1.59s3.33.53 4.463 1.59c1.134.99 1.701 2.438 1.701 4.345v4.239c1.346-3.109 3.329-5.51 5.951-7.206 2.692-1.696 5.668-2.65 8.927-2.861l1.488-.106z" fill="#000"/><path d="M159.617 59.937c-5.404 0-10.16-1.095-14.267-3.285-4.036-2.19-7.17-5.334-9.404-9.431-2.234-4.097-3.351-8.866-3.351-14.305 0-5.44 1.117-10.173 3.351-14.2 2.234-4.097 5.368-7.241 9.404-9.43C149.457 7.095 154.213 6 159.617 6c5.405 0 10.125 1.095 14.16 3.285 4.108 2.19 7.242 5.334 9.404 9.431 2.234 4.027 3.351 8.76 3.351 14.2 0 5.44-1.117 10.208-3.351 14.305-2.162 4.097-5.296 7.241-9.404 9.431-4.035 2.19-8.755 3.285-14.16 3.285zm-.108-10.279c4.396 0 7.747-1.413 10.053-4.238 2.306-2.826 3.459-6.994 3.459-12.504 0-5.44-1.153-9.573-3.459-12.398-2.306-2.897-5.621-4.345-9.945-4.345-4.323 0-7.674 1.448-10.052 4.345-2.306 2.825-3.459 6.958-3.459 12.398 0 5.51 1.153 9.678 3.459 12.504 2.306 2.825 5.621 4.238 9.944 4.238z" fill="#10D4FF"/><path d="M386.024 17.556c9.632 0 14.448 5.628 14.448 16.884v20.664c0 1.568-.476 2.8-1.428 3.696-.896.896-2.156 1.344-3.78 1.344-1.624 0-2.912-.448-3.864-1.344-.952-.896-1.428-2.128-1.428-3.696V34.44c0-2.968-.616-5.124-1.848-6.468-1.176-1.4-3.052-2.1-5.628-2.1-3.024 0-5.46.952-7.308 2.856-1.792 1.904-2.688 4.452-2.688 7.644v18.732c0 1.568-.476 2.8-1.428 3.696-.952.896-2.24 1.344-3.864 1.344-1.624 0-2.912-.448-3.864-1.344-.896-.896-1.344-2.128-1.344-3.696V4.872c0-1.456.476-2.632 1.428-3.528C364.436.448 365.724 0 367.292 0s2.828.42 3.78 1.26c.952.84 1.428 1.988 1.428 3.444v19.572c1.4-2.184 3.248-3.836 5.544-4.956 2.352-1.176 5.012-1.764 7.98-1.764zM443.645 48.21c.952 0 1.708.364 2.268 1.092.616.728.924 1.708.924 2.94 0 1.736-1.036 3.192-3.108 4.368-1.904 1.064-4.06 1.932-6.468 2.604-2.408.616-4.704.924-6.888.924-6.608 0-11.844-1.904-15.708-5.712-3.864-3.808-5.796-9.016-5.796-15.624 0-4.2.84-7.924 2.52-11.172 1.68-3.248 4.032-5.768 7.056-7.56 3.08-1.792 6.552-2.688 10.416-2.688 3.696 0 6.916.812 9.66 2.436 2.744 1.624 4.872 3.92 6.384 6.888 1.512 2.968 2.268 6.468 2.268 10.5 0 2.408-1.064 3.612-3.192 3.612h-24.78c.336 3.864 1.428 6.72 3.276 8.568 1.848 1.792 4.536 2.688 8.064 2.688 1.792 0 3.36-.224 4.704-.672 1.4-.448 2.968-1.064 4.704-1.848 1.68-.896 2.912-1.344 3.696-1.344zm-14.532-23.436c-2.856 0-5.152.896-6.888 2.688-1.68 1.792-2.688 4.368-3.024 7.728h18.984c-.112-3.416-.952-5.992-2.52-7.728-1.568-1.792-3.752-2.688-6.552-2.688zM473.607 17.382c5.712 0 9.94 1.428 12.684 4.284 2.8 2.8 4.2 7.084 4.2 12.852v20.496c0 1.512-.448 2.716-1.344 3.612-.896.84-2.128 1.26-3.696 1.26-1.456 0-2.66-.448-3.612-1.344-.896-.896-1.344-2.072-1.344-3.528v-1.848c-.952 2.184-2.464 3.892-4.536 5.124-2.016 1.232-4.368 1.848-7.056 1.848-2.744 0-5.236-.56-7.476-1.68-2.24-1.12-4.004-2.66-5.292-4.62-1.288-1.96-1.932-4.144-1.932-6.552 0-3.024.756-5.404 2.268-7.14 1.568-1.736 4.088-2.996 7.56-3.78 3.472-.784 8.26-1.176 14.364-1.176h2.1v-1.932c0-2.744-.588-4.732-1.764-5.964-1.176-1.288-3.08-1.932-5.712-1.932-1.624 0-3.276.252-4.956.756-1.68.448-3.668 1.12-5.964 2.016-1.456.728-2.52 1.092-3.192 1.092-1.008 0-1.848-.364-2.52-1.092-.616-.728-.924-1.68-.924-2.856 0-.952.224-1.764.672-2.436.504-.728 1.316-1.4 2.436-2.016 1.96-1.064 4.284-1.904 6.972-2.52 2.744-.616 5.432-.924 8.064-.924zm-2.604 35.196c2.8 0 5.068-.924 6.804-2.772 1.792-1.904 2.688-4.34 2.688-7.308v-1.764h-1.512c-3.752 0-6.664.168-8.736.504-2.072.336-3.556.924-4.452 1.764-.896.84-1.344 1.988-1.344 3.444 0 1.792.616 3.276 1.848 4.452 1.288 1.12 2.856 1.68 4.704 1.68zM506.333 60.17c-1.512 0-2.772-.42-3.78-1.26-.952-.896-1.428-2.156-1.428-3.78V4.982c0-1.624.476-2.856 1.428-3.696 1.008-.84 2.268-1.26 3.78-1.26s2.772.42 3.78 1.26c1.008.84 1.512 2.072 1.512 3.696V55.13c0 1.624-.504 2.884-1.512 3.78-1.008.84-2.268 1.26-3.78 1.26zM545.594 52.406c2.8.168 4.2 1.428 4.2 3.78 0 1.344-.56 2.38-1.68 3.108-1.064.672-2.604.952-4.62.84l-2.268-.168c-9.408-.672-14.112-5.712-14.112-15.12V26.534h-4.2c-1.512 0-2.688-.336-3.528-1.008-.784-.672-1.176-1.652-1.176-2.94s.392-2.268 1.176-2.94c.84-.672 2.016-1.008 3.528-1.008h4.2V10.91c0-1.512.476-2.716 1.428-3.612.952-.896 2.24-1.344 3.864-1.344 1.568 0 2.828.448 3.78 1.344.952.896 1.428 2.1 1.428 3.612v7.728h7.14c1.512 0 2.66.336 3.444 1.008.84.672 1.26 1.652 1.26 2.94s-.42 2.268-1.26 2.94c-.784.672-1.932 1.008-3.444 1.008h-7.14v19.068c0 4.144 1.904 6.356 5.712 6.636l2.268.168zM579.29 17.57c9.632 0 14.448 5.629 14.448 16.885v20.664c0 1.568-.476 2.8-1.428 3.696-.896.896-2.156 1.344-3.78 1.344-1.624 0-2.912-.448-3.864-1.344-.952-.896-1.428-2.128-1.428-3.696V34.455c0-2.968-.616-5.124-1.848-6.468-1.176-1.4-3.052-2.1-5.628-2.1-3.024 0-5.46.952-7.308 2.856-1.792 1.904-2.688 4.452-2.688 7.644v18.732c0 1.568-.476 2.8-1.428 3.696-.952.896-2.24 1.344-3.864 1.344-1.624 0-2.912-.448-3.864-1.344-.896-.896-1.344-2.128-1.344-3.696V4.887c0-1.456.476-2.632 1.428-3.528 1.008-.896 2.296-1.344 3.864-1.344s2.828.42 3.78 1.26c.952.84 1.428 1.988 1.428 3.444V24.29c1.4-2.184 3.248-3.836 5.544-4.956 2.352-1.176 5.012-1.764 7.98-1.764z" fill="#000"/></svg>
