<?xml version="1.0" encoding="utf-8"?>
<!-- Generator: Adobe Illustrator 24.0.3, SVG Export Plug-In . SVG Version: 6.00 Build 0)  -->
<svg version="1.1" id="Bildzeichen_x5F_NEU" xmlns="http://www.w3.org/2000/svg" xmlns:xlink="http://www.w3.org/1999/xlink"
	 x="0px" y="0px" viewBox="0 0 1169.4 518.1" style="enable-background:new 0 0 1169.4 518.1;" xml:space="preserve">
<style type="text/css">
	.st0{fill:#FFFFFF;}
	.st1{fill:#323E48;}
	.st2{fill:#656E76;}
	.st3{fill:#848B91;}
</style>
<rect class="st0" width="1169.4" height="518.1"/>
<g>
	<polygon class="st1" points="309.2,303.2 318.5,303.2 318.5,272.9 350.9,272.9 350.9,264.5 318.5,264.5 318.5,243.2 354.7,243.2 
		354.7,234.8 309.2,234.8 	"/>
	<path class="st1" d="M436.8,267.9c2.3-3.1,3.5-7.5,3.5-13.1c0-7-1.9-12.1-5.5-15.3c-3.7-3.2-9.5-4.8-17.5-4.8h-26.9v68.3h9.3V275
		h15.7l18,28.1l0.1,0.1h11.1l-18.4-29.1C430.9,273.1,434.5,271,436.8,267.9z M399.8,243.2h17.1c5,0,8.6,0.9,10.7,2.7
		c2.1,1.8,3.2,4.8,3.2,9.1s-1.1,7.3-3.2,9.1c-2.1,1.8-5.7,2.7-10.7,2.7h-17.1V243.2z"/>
	<polygon class="st1" points="489.6,272.6 523.6,272.6 523.6,264.2 489.6,264.2 489.6,243.2 529.2,243.2 529.2,234.8 480.2,234.8 
		480.2,303.2 529.8,303.2 529.8,294.8 489.6,294.8 	"/>
	<path class="st1" d="M594.5,265l-7.7-1.7c-4.6-1-7.8-2.3-9.6-3.9c-1.7-1.6-2.6-3.7-2.6-6.4c0-7.4,5.1-11.1,15.1-11.1
		c7.5,0,13.8,1.8,18.7,5.3l0.3,0.2v-9.5l-0.1-0.1c-3.9-2.8-10.4-4.2-19.2-4.2c-16,0-24.2,6.8-24.2,20.1c0,4.8,1.3,8.7,3.8,11.7
		c2.5,2.9,7,5.1,13.1,6.5l7.5,1.8c5.2,1.2,8.7,2.6,10.6,4.1c1.9,1.5,2.8,3.8,2.8,6.7c0,7.7-5.3,11.6-15.7,11.6
		c-8.9,0-16.6-2.3-22.8-7l-0.3-0.2v9.6l0.1,0.1c4.9,3.9,12.6,5.8,22.8,5.8c16.8,0,25.3-6.8,25.3-20.3c0-5.1-1.4-9.2-4.1-12.3
		C605.6,268.7,600.9,266.4,594.5,265z"/>
	<polygon class="st1" points="658.7,272.6 692.7,272.6 692.7,264.2 658.7,264.2 658.7,243.2 698.3,243.2 698.3,234.8 649.3,234.8 
		649.3,303.2 698.9,303.2 698.9,294.8 658.7,294.8 	"/>
	<polygon class="st1" points="780.9,286.2 747.3,234.9 747.2,234.8 735.6,234.8 735.6,303.2 744.6,303.2 744.6,247.5 781.1,303.1 
		781.1,303.2 789.9,303.2 789.9,234.8 780.9,234.8 	"/>
	<path class="st1" d="M924.6,278.7c0,6-1.3,10.4-4,13.1c-2.6,2.7-6.9,4.1-12.8,4.1c-5.8,0-10.1-1.4-12.7-4.1c-2.6-2.7-4-7.1-4-13.1
		v-43.9h-9.3v43.1c0,9.2,2.1,16,6.2,20.2c4.1,4.2,10.7,6.3,19.7,6.3s15.5-2.1,19.6-6.3c4.1-4.2,6.1-11,6.1-20.2v-43.1h-8.9V278.7z"
		/>
	<path class="st1" d="M1014,271.8c-2.7-3.1-7.4-5.4-13.8-6.8l-7.7-1.7c-4.6-1-7.8-2.3-9.6-3.9c-1.7-1.6-2.6-3.7-2.6-6.4
		c0-7.4,5.1-11.1,15.1-11.1c7.5,0,13.8,1.8,18.7,5.3l0.3,0.2v-9.5l-0.1-0.1c-3.9-2.8-10.4-4.2-19.2-4.2c-16,0-24.2,6.8-24.2,20.1
		c0,4.8,1.3,8.7,3.8,11.7c2.5,2.9,7,5.1,13.1,6.5l7.5,1.8c5.2,1.2,8.7,2.6,10.6,4.1c1.9,1.5,2.8,3.8,2.8,6.7
		c0,7.7-5.3,11.6-15.7,11.6c-8.9,0-16.6-2.3-22.8-7l-0.3-0.2v9.6l0.1,0.1c4.9,3.9,12.6,5.8,22.8,5.8c16.8,0,25.3-6.8,25.3-20.3
		C1018.2,279,1016.8,274.8,1014,271.8z"/>
</g>
<g>
	<path class="st1" d="M309.2,196.8v-45.3h7V171h23.9v-19.4h6v45.3h-6v-20.3h-23.9v20.3H309.2z"/>
	<path class="st1" d="M423.6,191.9c-3.2,3.8-8.2,5.8-15,5.8c-6.7,0-11.7-1.9-15-5.8c-3.2-3.8-4.9-9.7-4.9-17.7
		c0-7.9,1.6-13.8,4.9-17.7c3.2-3.8,8.2-5.8,15-5.8c6.7,0,11.7,1.9,15,5.8c3.2,3.8,4.9,9.7,4.9,17.7
		C428.5,182.2,426.9,188,423.6,191.9z M398.2,188c2.2,2.9,5.7,4.4,10.4,4.4c4.7,0,8.2-1.5,10.4-4.4c2.2-2.9,3.3-7.5,3.3-13.7
		c0-6.3-1.1-10.8-3.3-13.7c-2.2-2.9-5.7-4.4-10.4-4.4c-4.8,0-8.2,1.5-10.4,4.4c-2.2,2.9-3.3,7.5-3.3,13.7
		C394.9,180.5,396,185,398.2,188z"/>
	<path class="st1" d="M489.2,197.6c-7.1,0-12.4-1.9-15.8-5.8c-3.4-3.8-5.1-9.7-5.1-17.7c0-7.9,1.7-13.8,5.1-17.7
		c3.4-3.8,8.6-5.8,15.7-5.8c4.7,0,8.4,0.8,11.2,2.3v5.9c-3.2-1.9-6.8-2.9-11-2.9c-5.2,0-9,1.4-11.3,4.3c-2.4,2.9-3.5,7.4-3.5,13.7
		c0,6.3,1.2,11,3.6,13.8c2.4,2.9,6.2,4.3,11.5,4.3c4.1,0,7.7-1,10.8-2.9v5.9C497.5,196.9,493.8,197.6,489.2,197.6z"/>
	<path class="st1" d="M540.9,196.8v-45.3h6V171h23.9v-19.4h6v45.3h-6v-20.3h-23.9v20.3H540.9z"/>
	<path class="st1" d="M633.1,197.6c-6.8,0-11.8-1.3-15.1-3.9v-6.1c4.2,3.1,9.3,4.7,15.2,4.7c7.1,0,10.6-2.6,10.6-7.9
		c0-2-0.6-3.5-1.9-4.5c-1.3-1-3.6-2-7.1-2.7l-5-1.2c-4.1-0.9-7-2.4-8.7-4.3c-1.7-1.9-2.5-4.5-2.5-7.7c0-8.8,5.3-13.2,16-13.2
		c5.9,0,10.1,0.9,12.7,2.8v6.1c-3.3-2.4-7.5-3.5-12.5-3.5c-6.8,0-10.2,2.5-10.2,7.5c0,1.8,0.6,3.3,1.8,4.3c1.2,1.1,3.3,1.9,6.4,2.6
		l5.1,1.1c4.3,0.9,7.3,2.4,9.1,4.5c1.8,2,2.7,4.8,2.7,8.1C649.9,193.2,644.3,197.6,633.1,197.6z"/>
	<path class="st1" d="M709.6,197.6c-7.1,0-12.4-1.9-15.8-5.8c-3.4-3.8-5.1-9.7-5.1-17.7c0-7.9,1.7-13.8,5.1-17.7
		c3.4-3.8,8.6-5.8,15.7-5.8c4.7,0,8.4,0.8,11.2,2.3v5.9c-3.2-1.9-6.8-2.9-11-2.9c-5.2,0-9,1.4-11.3,4.3c-2.4,2.9-3.5,7.4-3.5,13.7
		c0,6.3,1.2,11,3.6,13.8c2.4,2.9,6.2,4.3,11.5,4.3c4.1,0,7.7-1,10.8-2.9v5.9C717.9,196.9,714.2,197.6,709.6,197.6z"/>
	<path class="st1" d="M761.3,196.8v-45.3h6V171h23.9v-19.4h6v45.3h-6v-20.3h-23.9v20.3H761.3z"/>
	<path class="st1" d="M870.7,193.5c-2.7,2.8-7,4.2-13,4.2s-10.3-1.4-13-4.2c-2.7-2.8-4.1-7.2-4.1-13.3v-28.6h6v29.1
		c0,4,0.9,7,2.7,8.8c1.8,1.8,4.6,2.8,8.5,2.8c4,0,6.8-0.9,8.6-2.8c1.8-1.8,2.7-4.8,2.7-8.8v-29.1h5.7v28.6
		C874.7,186.3,873.4,190.7,870.7,193.5z"/>
	<path class="st1" d="M918.1,196.8v-45.3h6v39.9h22.7v5.4H918.1z"/>
	<path class="st1" d="M985.1,196.8v-45.3h32.4v5.3h-26.4v14.2h22.6v5.3h-22.6v15h26.8v5.3H985.1z"/>
</g>
<g>
	<path class="st1" d="M325.9,364.7c-1.5,1.5-3.9,2.3-7.2,2.3c-3.3,0-5.7-0.8-7.2-2.3c-1.5-1.5-2.3-4-2.3-7.4v-15.9h3.3v16.2
		c0,2.2,0.5,3.9,1.5,4.9c1,1,2.6,1.5,4.7,1.5c2.2,0,3.8-0.5,4.8-1.5c1-1,1.5-2.7,1.5-4.9v-16.2h3.2v15.9
		C328.2,360.6,327.4,363.1,325.9,364.7z"/>
	<path class="st1" d="M338.4,366.5v-25.2h4.2l12.6,19.2v-19.2h3.2v25.2h-3.1l-13.6-20.8v20.8H338.4z"/>
	<path class="st1" d="M368.8,366.5v-25.2h3.3v25.2H368.8z"/>
	<path class="st1" d="M389.1,366.5l-9-25.2h3.6l7.3,20.5l7.3-20.5h3.4l-9,25.2H389.1z"/>
	<path class="st1" d="M409.6,366.5v-25.2h18v3h-14.7v7.9h12.6v3h-12.6v8.4h14.9v3H409.6z"/>
	<path class="st1" d="M436.5,366.5v-25.2h9.9c2.9,0,5.1,0.6,6.4,1.8s2,3,2,5.6c0,2-0.4,3.6-1.3,4.8c-0.9,1.1-2.2,1.9-4,2.3l6.8,10.7
		h-4l-6.7-10.4h-5.9v10.4H436.5z M439.8,353.1h6.4c1.9,0,3.2-0.3,4-1c0.8-0.7,1.2-1.8,1.2-3.4s-0.4-2.7-1.2-3.4c-0.8-0.7-2.1-1-4-1
		h-6.4V353.1z"/>
	<path class="st1" d="M471.7,367c-3.8,0-6.6-0.7-8.4-2.1v-3.4c2.3,1.7,5.1,2.6,8.5,2.6c3.9,0,5.9-1.5,5.9-4.4c0-1.1-0.4-1.9-1.1-2.5
		c-0.7-0.6-2-1.1-3.9-1.5l-2.8-0.6c-2.3-0.5-3.9-1.3-4.8-2.4c-0.9-1.1-1.4-2.5-1.4-4.3c0-4.9,3-7.4,8.9-7.4c3.3,0,5.6,0.5,7.1,1.6
		v3.4c-1.9-1.3-4.2-2-7-2c-3.8,0-5.7,1.4-5.7,4.2c0,1,0.3,1.8,1,2.4c0.7,0.6,1.8,1.1,3.6,1.4l2.8,0.6c2.4,0.5,4.1,1.3,5.1,2.5
		c1,1.1,1.5,2.6,1.5,4.5C481,364.5,477.9,367,471.7,367z"/>
	<path class="st1" d="M489.7,366.5v-25.2h3.3v25.2H489.7z"/>
	<path class="st1" d="M509.2,366.5v-22.2h-8.1v-3h19.5v3h-8.1v22.2H509.2z"/>
	<path class="st1" d="M535.9,366.5V356l-9.2-14.6h3.9l7,11.3l7-11.3h3.7l-9.1,14.5v10.6H535.9z"/>
	<path class="st1" d="M587.2,363.8c-1.8,2.1-4.6,3.2-8.3,3.2c-3.7,0-6.5-1.1-8.3-3.2c-1.8-2.1-2.7-5.4-2.7-9.8
		c0-4.4,0.9-7.7,2.7-9.8c1.8-2.1,4.6-3.2,8.3-3.2c3.8,0,6.5,1.1,8.3,3.2s2.7,5.4,2.7,9.8C589.9,358.4,589,361.6,587.2,363.8z
		 M573.1,361.6c1.2,1.6,3.2,2.4,5.8,2.4s4.6-0.8,5.8-2.4c1.2-1.6,1.8-4.2,1.8-7.6c0-3.5-0.6-6-1.8-7.6c-1.2-1.6-3.2-2.4-5.8-2.4
		s-4.6,0.8-5.8,2.4c-1.2,1.6-1.8,4.2-1.8,7.6C571.2,357.4,571.9,360,573.1,361.6z"/>
	<path class="st1" d="M599.2,366.5v-25.2h16.7v3h-13.4v8h12v3h-12v11.2H599.2z"/>
	<path class="st1" d="M635.1,366.5l10-25.2h3.4l10,25.2h-3.6l-2.4-6.2h-11.7l-2.4,6.2H635.1z M642,357.3h9.3l-4.7-12.2L642,357.3z"
		/>
	<path class="st1" d="M666.4,366.5v-25.2h10.2c3.1,0,5.3,0.6,6.6,1.8s2,3.2,2,5.9c0,2.7-0.7,4.7-2,5.8c-1.3,1.2-3.5,1.8-6.6,1.8
		h-6.8v9.9H666.4z M669.7,353.7h6.6c2,0,3.4-0.4,4.2-1.1c0.8-0.7,1.2-1.9,1.2-3.6s-0.4-2.9-1.2-3.6c-0.8-0.7-2.2-1.1-4.2-1.1h-6.6
		V353.7z"/>
	<path class="st1" d="M693.5,366.5v-25.2h10.2c3.1,0,5.3,0.6,6.6,1.8s2,3.2,2,5.9c0,2.7-0.7,4.7-2,5.8c-1.3,1.2-3.5,1.8-6.6,1.8
		h-6.8v9.9H693.5z M696.9,353.7h6.6c2,0,3.4-0.4,4.2-1.1c0.8-0.7,1.2-1.9,1.2-3.6s-0.4-2.9-1.2-3.6c-0.8-0.7-2.2-1.1-4.2-1.1h-6.6
		V353.7z"/>
	<path class="st1" d="M720.6,366.5v-25.2h3.3v22.2h12.6v3H720.6z"/>
	<path class="st1" d="M744.7,366.5v-25.2h3.3v25.2H744.7z"/>
	<path class="st1" d="M758.4,366.5v-25.2h18v3h-14.7v7.9h12.6v3h-12.6v8.4h14.9v3H758.4z"/>
	<path class="st1" d="M785.3,366.5v-25.2h7.8c4.1,0,7,1,8.8,2.9c1.8,2,2.7,5.2,2.7,9.6c0,4.5-0.9,7.7-2.7,9.6
		c-1.8,2-4.7,2.9-8.8,2.9H785.3z M788.6,363.6h4.3c3.1,0,5.3-0.7,6.5-2.1c1.2-1.4,1.8-3.9,1.8-7.5c0-3.6-0.6-6.1-1.8-7.5
		c-1.2-1.4-3.4-2.1-6.5-2.1h-4.3V363.6z"/>
	<path class="st1" d="M834.8,367c-3.8,0-6.6-0.7-8.4-2.1v-3.4c2.3,1.7,5.1,2.6,8.5,2.6c3.9,0,5.9-1.5,5.9-4.4c0-1.1-0.4-1.9-1.1-2.5
		c-0.7-0.6-2-1.1-3.9-1.5l-2.8-0.6c-2.3-0.5-3.9-1.3-4.8-2.4c-0.9-1.1-1.4-2.5-1.4-4.3c0-4.9,3-7.4,8.9-7.4c3.3,0,5.6,0.5,7.1,1.6
		v3.4c-1.9-1.3-4.2-2-7-2c-3.8,0-5.7,1.4-5.7,4.2c0,1,0.3,1.8,1,2.4c0.7,0.6,1.8,1.1,3.6,1.4l2.8,0.6c2.4,0.5,4.1,1.3,5.1,2.5
		c1,1.1,1.5,2.6,1.5,4.5C844.1,364.5,841,367,834.8,367z"/>
	<path class="st1" d="M863.3,367c-3.9,0-6.9-1.1-8.8-3.2c-1.9-2.1-2.8-5.4-2.8-9.8c0-4.4,0.9-7.7,2.8-9.8c1.9-2.1,4.8-3.2,8.7-3.2
		c2.6,0,4.7,0.4,6.2,1.3v3.3c-1.8-1.1-3.8-1.6-6.1-1.6c-2.9,0-5,0.8-6.3,2.4c-1.3,1.6-2,4.1-2,7.6c0,3.5,0.7,6.1,2,7.7
		c1.3,1.6,3.4,2.4,6.4,2.4c2.3,0,4.3-0.5,6-1.6v3.3C868,366.5,865.9,367,863.3,367z"/>
	<path class="st1" d="M878.2,366.5v-25.2h3.3v25.2H878.2z"/>
	<path class="st1" d="M891.9,366.5v-25.2h18v3h-14.7v7.9h12.6v3h-12.6v8.4h14.9v3H891.9z"/>
	<path class="st1" d="M918.8,366.5v-25.2h4.2l12.6,19.2v-19.2h3.2v25.2h-3.1L922,345.8v20.8H918.8z"/>
	<path class="st1" d="M959.6,367c-3.9,0-6.9-1.1-8.8-3.2c-1.9-2.1-2.8-5.4-2.8-9.8c0-4.4,0.9-7.7,2.8-9.8c1.9-2.1,4.8-3.2,8.7-3.2
		c2.6,0,4.7,0.4,6.2,1.3v3.3c-1.8-1.1-3.8-1.6-6.1-1.6c-2.9,0-5,0.8-6.3,2.4c-1.3,1.6-2,4.1-2,7.6c0,3.5,0.7,6.1,2,7.7
		c1.3,1.6,3.4,2.4,6.4,2.4c2.3,0,4.3-0.5,6-1.6v3.3C964.2,366.5,962.2,367,959.6,367z"/>
	<path class="st1" d="M974.4,366.5v-25.2h18v3h-14.7v7.9h12.6v3h-12.6v8.4h14.9v3H974.4z"/>
	<path class="st1" d="M1008.8,367c-3.8,0-6.6-0.7-8.4-2.1v-3.4c2.3,1.7,5.1,2.6,8.5,2.6c3.9,0,5.9-1.5,5.9-4.4
		c0-1.1-0.4-1.9-1.1-2.5c-0.7-0.6-2-1.1-3.9-1.5l-2.8-0.6c-2.3-0.5-3.9-1.3-4.8-2.4c-0.9-1.1-1.4-2.5-1.4-4.3c0-4.9,3-7.4,8.9-7.4
		c3.3,0,5.6,0.5,7.1,1.6v3.4c-1.9-1.3-4.2-2-7-2c-3.8,0-5.7,1.4-5.7,4.2c0,1,0.3,1.8,1,2.4c0.7,0.6,1.8,1.1,3.6,1.4l2.8,0.6
		c2.4,0.5,4.1,1.3,5.1,2.5c1,1.1,1.5,2.6,1.5,4.5C1018.1,364.5,1015,367,1008.8,367z"/>
</g>
<polygon class="st1" points="850,242 850,234.8 822.8,234.8 822.8,242 831.7,242 831.7,295.9 822.8,295.9 822.8,303.2 850,303.2 
	850,295.9 841.1,295.9 841.1,242 "/>
<g>
	<path class="st2" d="M194.6,262.6c-19.8,8.3-42.6-1.1-50.8-20.9c-2.9-7-3.6-14.4-2.4-21.4l-23.3,0c-1.1,10,0.3,20.4,4.4,30.3
		c13.2,31.6,49.4,46.5,81,33.3c9.8-4.1,18-10.4,24.3-18.2l-16.5-16.5C207.2,255,201.5,259.7,194.6,262.6z"/>
	<path class="st1" d="M175.2,205.9c2.8-21.3,22.4-36.2,43.7-33.4c7.5,1,14.3,4.1,19.7,8.7l11.7-20.1c-8.1-5.9-17.7-10-28.4-11.4
		c-33.9-4.5-65,19.3-69.6,53.2c-1.4,10.6-0.1,20.8,3.5,30.1l22.5-5.9C175.4,220.7,174.2,213.4,175.2,205.9z"/>
	<path class="st3" d="M233.9,217.6c17,13.1,20.1,37.5,7,54.5c-4.6,6-10.7,10.3-17.4,12.7l11.5,20.2c9.2-4,17.5-10.4,24.1-18.9
		c20.9-27.1,15.9-66-11.2-86.8c-8.4-6.5-18-10.5-27.8-12.1l-6.1,22.5C221,210.4,227.9,213,233.9,217.6z"/>
</g>
</svg>
