<svg width="71" height="66" viewBox="0 0 71 66" fill="none" xmlns="http://www.w3.org/2000/svg">
<circle cx="38.8667" cy="34.4667" r="31.5333" fill="#EEC228"/>
<path fill-rule="evenodd" clip-rule="evenodd" d="M31.5333 61.0667C47.8441 61.0667 61.0667 47.8441 61.0667 31.5333C61.0667 15.2225 47.8441 2 31.5333 2C15.2225 2 2 15.2225 2 31.5333C2 47.8441 15.2225 61.0667 31.5333 61.0667ZM31.5333 63.0667C48.9487 63.0667 63.0667 48.9487 63.0667 31.5333C63.0667 14.118 48.9487 0 31.5333 0C14.118 0 0 14.118 0 31.5333C0 48.9487 14.118 63.0667 31.5333 63.0667Z" fill="black"/>
<path d="M41.5 31.5C39.8453 31.5 38.5 30.1547 38.5 28.5C38.5 26.8453 39.8453 25.5 41.5 25.5C43.1547 25.5 44.5 26.8453 44.5 28.5C44.5 30.1547 43.1547 31.5 41.5 31.5ZM20.5 31.5C18.8453 31.5 17.5 30.1547 17.5 28.5C17.5 26.8453 18.8453 25.5 20.5 25.5C22.1547 25.5 23.5 26.8453 23.5 28.5C23.5 30.1547 22.1547 31.5 20.5 31.5ZM19 33H22C22.825 33 23.5703 33.3328 24.1141 33.8719C22.225 34.9078 20.8844 36.7781 20.5938 39H17.5C16.6703 39 16 38.3297 16 37.5V36C16 34.3453 17.3453 33 19 33ZM31 33C28.0984 33 25.75 30.6516 25.75 27.75C25.75 24.8484 28.0984 22.5 31 22.5C33.9016 22.5 36.25 24.8484 36.25 27.75C36.25 30.6516 33.9016 33 31 33ZM27.4 34.5H27.7891C28.7641 34.9688 29.8469 35.25 31 35.25C32.1531 35.25 33.2312 34.9688 34.2109 34.5H34.6C37.5813 34.5 40 36.9188 40 39.9V41.25C40 42.4922 38.9922 43.5 37.75 43.5H24.25C23.0078 43.5 22 42.4922 22 41.25V39.9C22 36.9188 24.4188 34.5 27.4 34.5ZM37.8859 33.8719C38.4297 33.3328 39.175 33 40 33H43C44.6547 33 46 34.3453 46 36V37.5C46 38.3297 45.3297 39 44.5 39H41.4109C41.1156 36.7781 39.775 34.9078 37.8859 33.8719Z" fill="black"/>
</svg>
