<svg width="17" height="15" viewBox="0 0 17 15" fill="none" xmlns="http://www.w3.org/2000/svg">
<path fill-rule="evenodd" clip-rule="evenodd" d="M7.6557 4.77979C8.07408 4.29737 8.2241 3.78894 7.75093 3.34015C6.68909 2.06883 5.97497 1.28265 5.52704 0.904049C4.67547 0.184272 3.27462 0.281634 2.53709 0.903434C2.14096 1.23741 2.00686 1.3521 1.60012 1.70559C-0.665487 3.64517 0.716195 7.74538 4.38921 10.8912C8.06139 14.0364 12.8529 15.2192 15.1233 13.2756C15.4986 12.966 15.8164 12.6939 16.067 12.4673C16.7898 11.8136 16.8995 10.6679 16.0623 9.92352C15.633 9.5419 14.7568 8.96037 13.2085 8.01273C12.7343 7.64991 12.172 7.72854 11.6566 8.01791C11.4086 8.1571 11.2281 8.29791 10.8874 8.58975L10.2687 9.11947C10.1872 9.18924 9.08054 8.71505 8.00633 7.79501C6.93153 6.87447 6.37772 5.92755 6.45883 5.85815L7.07801 5.32807C7.18612 5.23547 7.2378 5.19065 7.30409 5.13104C7.44218 5.00686 7.55651 4.89416 7.6557 4.77979ZM11.4097 10.0966L12.0286 9.56681C12.2161 9.40619 12.3376 9.30744 12.4365 9.23935C13.7928 10.0728 14.5784 10.5968 14.8992 10.8821C15.0918 11.0533 15.0619 11.3658 14.8945 11.5173C14.6627 11.7269 14.3616 11.9846 13.9921 12.2896C12.524 13.5462 8.65619 12.5914 5.53049 9.91434C2.4038 7.23641 1.28841 3.92646 2.74542 2.6791C3.15052 2.32707 3.27887 2.2173 3.66935 1.8881C3.81575 1.76466 4.21455 1.73695 4.39265 1.88748C4.73752 2.17897 5.37723 2.87982 6.31828 4.00145C6.26956 4.0532 6.20872 4.11168 6.13467 4.17827C6.08032 4.22714 6.03505 4.26641 5.93606 4.35119L5.31749 4.88075C4.26518 5.78108 5.16136 7.31338 6.86437 8.77197C8.56622 10.2296 10.3577 10.9972 11.4097 10.0966Z" fill="black"/>
</svg>
