<svg width="71" height="66" viewBox="0 0 71 66" fill="none" xmlns="http://www.w3.org/2000/svg">
<circle cx="38.8667" cy="34.4667" r="31.5333" fill="#28EE5F"/>
<circle cx="31.5333" cy="31.5333" r="30.5333" stroke="black" stroke-width="2"/>
<path d="M33.9281 35.288C34.4081 35.288 34.7681 35.392 35.0081 35.6C35.2481 35.808 35.3681 36.104 35.3681 36.488C35.3681 37.288 34.8881 37.688 33.9281 37.688H32.7041V39.584C32.7041 40.08 32.5601 40.464 32.2721 40.736C32.0001 41.008 31.6401 41.144 31.1921 41.144C30.7441 41.144 30.3761 41.008 30.0881 40.736C29.8161 40.464 29.6801 40.08 29.6801 39.584V37.688H23.3921C22.9601 37.688 22.6241 37.568 22.3841 37.328C22.1441 37.072 22.0241 36.76 22.0241 36.392C22.0241 36.008 22.1521 35.64 22.4081 35.288L29.8241 24.632C29.9841 24.408 30.1841 24.24 30.4241 24.128C30.6641 24 30.9121 23.936 31.1681 23.936C31.5841 23.936 31.9441 24.072 32.2481 24.344C32.5521 24.616 32.7041 25 32.7041 25.496V35.288H33.9281ZM25.2161 35.288H29.6801V28.832L25.2161 35.288Z" fill="black"/>
<path d="M38.6947 41.144C38.1827 41.144 37.7587 40.976 37.4227 40.64C37.0867 40.288 36.9187 39.856 36.9187 39.344C36.9187 38.832 37.0867 38.408 37.4227 38.072C37.7587 37.72 38.1827 37.544 38.6947 37.544C39.2067 37.544 39.6307 37.72 39.9667 38.072C40.3027 38.408 40.4707 38.832 40.4707 39.344C40.4707 39.856 40.3027 40.288 39.9667 40.64C39.6307 40.976 39.2067 41.144 38.6947 41.144Z" fill="black"/>
</svg>
