<svg width="71" height="66" viewBox="0 0 71 66" fill="none" xmlns="http://www.w3.org/2000/svg">
<circle cx="38.8667" cy="34.4667" r="31.5333" fill="#EA28EE"/>
<circle cx="31.5333" cy="31.5333" r="30.5333" stroke="black" stroke-width="2"/>
<path d="M31.1201 32.312C32.1281 32.568 32.8961 33.056 33.4241 33.776C33.9681 34.48 34.2401 35.36 34.2401 36.416C34.2401 37.872 33.7041 39.032 32.6321 39.896C31.5601 40.76 30.1121 41.192 28.2881 41.192C27.2481 41.192 26.2481 41.032 25.2881 40.712C24.3281 40.392 23.5121 39.944 22.8401 39.368C22.4721 39.048 22.2881 38.672 22.2881 38.24C22.2881 37.888 22.3841 37.592 22.5761 37.352C22.7841 37.096 23.0241 36.968 23.2961 36.968C23.4561 36.968 23.6001 37 23.7281 37.064C23.8561 37.112 24.0321 37.2 24.2561 37.328C24.9281 37.776 25.5681 38.12 26.1761 38.36C26.7841 38.6 27.4481 38.72 28.1681 38.72C29.2241 38.72 30.0081 38.512 30.5201 38.096C31.0321 37.664 31.2881 37.016 31.2881 36.152C31.2881 35.304 31.0161 34.68 30.4721 34.28C29.9441 33.864 29.1201 33.656 28.0001 33.656H26.6321C26.2641 33.656 25.9761 33.536 25.7681 33.296C25.5761 33.04 25.4801 32.752 25.4801 32.432C25.4801 32.096 25.5761 31.808 25.7681 31.568C25.9761 31.328 26.2641 31.208 26.6321 31.208H27.5921C29.7841 31.208 30.8801 30.384 30.8801 28.736C30.8801 27.968 30.6481 27.376 30.1841 26.96C29.7201 26.544 29.0801 26.336 28.2641 26.336C27.0961 26.336 25.8481 26.8 24.5201 27.728C24.2961 27.856 24.1201 27.952 23.9921 28.016C23.8641 28.064 23.7201 28.088 23.5601 28.088C23.2881 28.088 23.0481 27.968 22.8401 27.728C22.6481 27.472 22.5521 27.168 22.5521 26.816C22.5521 26.576 22.5921 26.376 22.6721 26.216C22.7681 26.04 22.9121 25.864 23.1041 25.688C23.7761 25.128 24.5761 24.688 25.5041 24.368C26.4481 24.032 27.4081 23.864 28.3841 23.864C30.0481 23.864 31.3681 24.272 32.3441 25.088C33.3361 25.904 33.8321 26.992 33.8321 28.352C33.8161 29.28 33.5681 30.096 33.0881 30.8C32.6241 31.488 31.9681 31.992 31.1201 32.312Z" fill="black"/>
<path d="M38.6947 41.144C38.1827 41.144 37.7587 40.976 37.4227 40.64C37.0867 40.288 36.9187 39.856 36.9187 39.344C36.9187 38.832 37.0867 38.408 37.4227 38.072C37.7587 37.72 38.1827 37.544 38.6947 37.544C39.2067 37.544 39.6307 37.72 39.9667 38.072C40.3027 38.408 40.4707 38.832 40.4707 39.344C40.4707 39.856 40.3027 40.288 39.9667 40.64C39.6307 40.976 39.2067 41.144 38.6947 41.144Z" fill="black"/>
</svg>
