<svg width="71" height="66" viewBox="0 0 71 66" fill="none" xmlns="http://www.w3.org/2000/svg">
<circle cx="38.8667" cy="34.4667" r="31.5333" fill="#EEC228"/>
<circle cx="31.5333" cy="31.5333" r="30.5333" stroke="black" stroke-width="2"/>
<path d="M33.3521 38.504C34.3121 38.504 34.7921 38.912 34.7921 39.728C34.7921 40.576 34.3121 41 33.3521 41H25.2401C24.2641 41 23.7761 40.576 23.7761 39.728C23.7761 38.912 24.2641 38.504 25.2401 38.504H27.7361V27.56L25.4321 28.976C25.2081 29.104 25.0081 29.168 24.8321 29.168C24.4961 29.168 24.2081 29.024 23.9681 28.736C23.7441 28.448 23.6321 28.128 23.6321 27.776C23.6321 27.312 23.8401 26.952 24.2561 26.696L27.9761 24.392C28.4561 24.104 28.9121 23.96 29.3441 23.96C29.7921 23.96 30.1521 24.096 30.4241 24.368C30.6961 24.64 30.8321 25.016 30.8321 25.496V38.504H33.3521Z" fill="black"/>
<path d="M38.6948 41.144C38.1828 41.144 37.7588 40.976 37.4228 40.64C37.0868 40.288 36.9188 39.856 36.9188 39.344C36.9188 38.832 37.0868 38.408 37.4228 38.072C37.7588 37.72 38.1828 37.544 38.6948 37.544C39.2068 37.544 39.6308 37.72 39.9668 38.072C40.3028 38.408 40.4708 38.832 40.4708 39.344C40.4708 39.856 40.3028 40.288 39.9668 40.64C39.6308 40.976 39.2068 41.144 38.6948 41.144Z" fill="black"/>
</svg>
