<svg width="71" height="66" viewBox="0 0 71 66" fill="none" xmlns="http://www.w3.org/2000/svg">
<circle cx="38.8667" cy="34.4667" r="31.5333" fill="#28EECA"/>
<circle cx="31.5333" cy="31.5333" r="30.5333" stroke="black" stroke-width="2"/>
<path d="M33.2684 38.504C34.2284 38.504 34.7084 38.912 34.7084 39.728C34.7084 40.576 34.2284 41 33.2684 41H24.1484C23.7324 41 23.4044 40.88 23.1644 40.64C22.9244 40.384 22.8044 40.072 22.8044 39.704C22.8044 39.224 22.9884 38.792 23.3564 38.408L28.8284 32.528C29.5004 31.792 29.9884 31.12 30.2924 30.512C30.6124 29.888 30.7724 29.272 30.7724 28.664C30.7724 27.912 30.5564 27.336 30.1244 26.936C29.6924 26.536 29.0764 26.336 28.2764 26.336C27.6204 26.336 26.9804 26.464 26.3564 26.72C25.7484 26.96 25.1324 27.296 24.5084 27.728C24.3484 27.84 24.1884 27.936 24.0284 28.016C23.8684 28.08 23.7084 28.112 23.5484 28.112C23.2764 28.112 23.0364 27.984 22.8284 27.728C22.6364 27.472 22.5404 27.168 22.5404 26.816C22.5404 26.576 22.5804 26.368 22.6604 26.192C22.7564 26.016 22.9004 25.848 23.0924 25.688C23.7964 25.128 24.6204 24.688 25.5644 24.368C26.5084 24.032 27.4524 23.864 28.3964 23.864C30.0444 23.864 31.3564 24.28 32.3324 25.112C33.3244 25.944 33.8204 27.064 33.8204 28.472C33.8204 29.448 33.6124 30.368 33.1964 31.232C32.7804 32.08 32.0764 33.032 31.0844 34.088L26.9324 38.504H33.2684Z" fill="black"/>
<path d="M38.7065 41.144C38.1945 41.144 37.7705 40.976 37.4345 40.64C37.0985 40.288 36.9305 39.856 36.9305 39.344C36.9305 38.832 37.0985 38.408 37.4345 38.072C37.7705 37.72 38.1945 37.544 38.7065 37.544C39.2185 37.544 39.6425 37.72 39.9785 38.072C40.3145 38.408 40.4825 38.832 40.4825 39.344C40.4825 39.856 40.3145 40.288 39.9785 40.64C39.6425 40.976 39.2185 41.144 38.7065 41.144Z" fill="black"/>
</svg>
