<svg width="24" height="24" viewBox="0 0 24 24" fill="none" xmlns="http://www.w3.org/2000/svg">
<path fill-rule="evenodd" clip-rule="evenodd" d="M9 1H15C16.1046 1 17 1.89543 17 3V4H20C21.1046 4 22 4.89543 22 6V8C22 9.10457 21.1046 10 20 10H19.9199L19 21C19 22.1046 18.1046 23 17 23H7C5.89543 23 5 22.1046 5.00345 21.083L4.07987 10H4C2.89543 10 2 9.10457 2 8V6C2 4.89543 2.89543 4 4 4H7V3C7 1.89543 7.89543 1 9 1ZM4 6H7H17H20V8H4V6ZM6.08649 10H17.9132L17.0035 20.917L17 21H7L6.08649 10ZM15 3V4H9V3H15ZM13.4142 15L15.7071 17.2929L14.2929 18.7071L12 16.4142L9.70711 18.7071L8.29289 17.2929L10.5858 15L8.29289 12.7071L9.70711 11.2929L12 13.5858L14.2929 11.2929L15.7071 12.7071L13.4142 15Z" fill="currentColor"/>
</svg>
