<svg width="20" height="20" viewBox="0 0 20 20" fill="none" xmlns="http://www.w3.org/2000/svg">
<path d="M18.9095 8.88906H18.0677C16.088 8.88906 15.0962 6.4957 16.4962 5.0957L17.0911 4.5C17.2873 4.28937 17.3941 4.01083 17.3889 3.72305C17.3838 3.43527 17.2672 3.16071 17.0636 2.95721C16.8601 2.75372 16.5855 2.63716 16.2977 2.6321C16.0099 2.62704 15.7314 2.73386 15.5208 2.93008L14.9255 3.52461C13.5255 4.92422 11.1322 3.93281 11.1322 1.95312V1.11133C11.1322 0.816585 11.0151 0.533915 10.8067 0.3255C10.5982 0.117086 10.3156 0 10.0208 0C9.72609 0 9.44342 0.117086 9.23501 0.3255C9.02659 0.533915 8.90951 0.816585 8.90951 1.11133V1.95352C8.90951 3.9332 6.51615 4.92461 5.11615 3.525L4.52083 2.93008C4.31025 2.73386 4.03174 2.62704 3.74396 2.6321C3.45618 2.63716 3.18159 2.75372 2.97804 2.95721C2.77449 3.16071 2.65787 3.43527 2.65274 3.72305C2.6476 4.01083 2.75436 4.28937 2.95052 4.5L3.54623 5.0957C4.94623 6.4957 3.95443 8.88906 1.97474 8.88906H1.13216C0.984494 8.88629 0.837754 8.91298 0.70052 8.96758C0.563286 9.02218 0.438312 9.10358 0.332901 9.20703C0.227491 9.31049 0.143759 9.43391 0.0865995 9.5701C0.0294401 9.70628 0 9.8525 0 10.0002C0 10.1479 0.0294401 10.2941 0.0865995 10.4303C0.143759 10.5665 0.227491 10.6899 0.332901 10.7934C0.438312 10.8968 0.563286 10.9782 0.70052 11.0328C0.837754 11.0874 0.984494 11.1141 1.13216 11.1113H1.97396C3.95365 11.1113 4.94544 13.5051 3.54544 14.9051L2.95052 15.5004C2.75628 15.7114 2.65114 15.9893 2.65707 16.276C2.66299 16.5628 2.77954 16.8361 2.98233 17.0389C3.18512 17.2417 3.45846 17.3582 3.74519 17.3642C4.03192 17.3701 4.30984 17.2649 4.52083 17.0707L5.11615 16.475C6.51615 15.075 8.90951 16.0668 8.90951 18.0465V18.8879C8.90951 19.1826 9.02659 19.4653 9.23501 19.6737C9.44342 19.8821 9.72609 19.9992 10.0208 19.9992C10.3156 19.9992 10.5982 19.8821 10.8067 19.6737C11.0151 19.4653 11.1322 19.1826 11.1322 18.8879V18.0473C11.1322 16.0676 13.5255 15.0758 14.9255 16.4758L15.5208 17.0707C15.7318 17.2649 16.0098 17.3701 16.2965 17.3642C16.5832 17.3582 16.8566 17.2417 17.0593 17.0389C17.2621 16.8361 17.3787 16.5628 17.3846 16.276C17.3905 15.9893 17.2854 15.7114 17.0911 15.5004L16.4954 14.9051C15.0954 13.5051 16.0872 11.1113 18.0669 11.1113H18.9083C19.056 11.1141 19.2027 11.0874 19.34 11.0328C19.4772 10.9782 19.6022 10.8968 19.7076 10.7934C19.813 10.6899 19.8967 10.5665 19.9539 10.4303C20.0111 10.2941 20.0405 10.1479 20.0405 10.0002C20.0405 9.8525 20.0111 9.70628 19.9539 9.5701C19.8967 9.43391 19.813 9.31049 19.7076 9.20703C19.6022 9.10358 19.4772 9.02218 19.34 8.96758C19.2027 8.91298 19.056 8.88629 18.9083 8.88906H18.9095ZM8.77083 10.6254C8.39999 10.6254 8.03748 10.5154 7.72914 10.3094C7.4208 10.1034 7.18047 9.81053 7.03856 9.46792C6.89665 9.12531 6.85952 8.74831 6.93186 8.38459C7.00421 8.02088 7.18279 7.68679 7.44501 7.42456C7.70723 7.16234 8.04133 6.98376 8.40504 6.91142C8.76875 6.83907 9.14575 6.8762 9.48837 7.01811C9.83098 7.16003 10.1238 7.40035 10.3298 7.70869C10.5359 8.01704 10.6458 8.37955 10.6458 8.75039C10.6458 9.24767 10.4483 9.72458 10.0967 10.0762C9.74503 10.4278 9.26812 10.6254 8.77083 10.6254ZM11.8958 12.8129C11.7104 12.8129 11.5292 12.7579 11.375 12.6549C11.2208 12.5519 11.1007 12.4055 11.0297 12.2342C10.9587 12.0628 10.9402 11.8743 10.9763 11.6925C11.0125 11.5106 11.1018 11.3436 11.2329 11.2125C11.364 11.0814 11.5311 10.9921 11.7129 10.9559C11.8948 10.9197 12.0833 10.9383 12.2546 11.0093C12.4259 11.0802 12.5723 11.2004 12.6753 11.3545C12.7784 11.5087 12.8333 11.69 12.8333 11.8754C12.8333 12.124 12.7346 12.3625 12.5587 12.5383C12.3829 12.7141 12.1445 12.8129 11.8958 12.8129Z" fill="black"/>
</svg>
