<svg width="26" height="23" viewBox="0 0 26 23" fill="none" xmlns="http://www.w3.org/2000/svg">
<circle cx="14.2707" cy="11.9458" r="10.9292" fill="#FDA41F"/>
<path fill-rule="evenodd" clip-rule="evenodd" d="M11.7292 21.1652C17.3824 21.1652 21.9652 16.5823 21.9652 10.9292C21.9652 5.27599 17.3824 0.693182 11.7292 0.693182C6.07604 0.693182 1.49323 5.27599 1.49323 10.9292C1.49323 16.5823 6.07604 21.1652 11.7292 21.1652ZM11.7292 21.8583C17.7652 21.8583 22.6584 16.9652 22.6584 10.9292C22.6584 4.89315 17.7652 0 11.7292 0C5.6932 0 0.800049 4.89315 0.800049 10.9292C0.800049 16.9652 5.6932 21.8583 11.7292 21.8583Z" fill="black"/>
<path d="M12.1091 13.134C11.9411 13.134 11.7964 13.078 11.6751 12.966C11.5631 12.854 11.4931 12.6907 11.4651 12.476L10.8491 7.57604C10.8397 7.52937 10.8351 7.46404 10.8351 7.38004C10.8351 7.0347 10.9564 6.75937 11.1991 6.55403C11.4417 6.3487 11.7451 6.24603 12.1091 6.24603C12.5104 6.24603 12.8324 6.36737 13.0751 6.61003C13.3271 6.8527 13.4251 7.17937 13.3691 7.59003L12.7391 12.476C12.7204 12.6907 12.6504 12.854 12.5291 12.966C12.4171 13.078 12.2771 13.134 12.1091 13.134ZM12.1091 16.27C11.7637 16.27 11.4791 16.158 11.2551 15.934C11.0311 15.7007 10.9191 15.4114 10.9191 15.066C10.9191 14.7207 11.0311 14.436 11.2551 14.212C11.4791 13.9787 11.7637 13.862 12.1091 13.862C12.4544 13.862 12.7391 13.9787 12.9631 14.212C13.1871 14.436 13.2991 14.7207 13.2991 15.066C13.2991 15.4114 13.1871 15.7007 12.9631 15.934C12.7391 16.158 12.4544 16.27 12.1091 16.27Z" fill="black"/>
</svg>
